<svg xmlns="http://www.w3.org/2000/svg" viewBox="0 0 762.78 160.94"><defs><style>.cls-1{fill:#1a1a1a;}.cls-2{fill:none;}.cls-3{fill:#e6e6e6;}.cls-4{fill:#179cff;}.cls-5{fill:#b3b3b3;}.cls-6{fill:#0d81c9;}</style></defs><title>steamID</title><g id="Border"><g id="Border-2" data-name="Border"><path class="cls-1" d="M169.31,432.2q23.31,0,34.1,9.46t11.88,26.18h-27.5q-1.11-7.48-5.61-10.89t-13.75-3.41q-8.81,0-13.31,2.09a7.29,7.29,0,0,0-4.51,7.15q0,4.39,4.51,7a57.77,57.77,0,0,0,13.09,5.06L192,481.59a58.78,58.78,0,0,1,15.51,6.49,21.71,21.71,0,0,1,8.36,9.35q2.52,5.61,2.53,15.07,0,14.52-12.1,24.09t-35.86,9.57a78.45,78.45,0,0,1-21.12-2.64,49.2,49.2,0,0,1-16.17-7.59,33.86,33.86,0,0,1-14.19-27.39h29.48a13.58,13.58,0,0,0,6.05,11.88q6,4.19,15.73,4.18a34.94,34.94,0,0,0,14-2.53q5.82-2.54,5.83-7.81,0-5.94-4.29-8.58t-13.09-4.62a172.16,172.16,0,0,1-25.52-7.37q-9.69-3.85-15.07-8.47a23.22,23.22,0,0,1-7.26-10.12,38,38,0,0,1-1.87-12.32,27.52,27.52,0,0,1,2.53-11.66,25.55,25.55,0,0,1,8-9.68,43.13,43.13,0,0,1,14.3-6.71q8.79-2.53,21.56-2.53m0-6A85.56,85.56,0,0,0,146.09,429a49.52,49.52,0,0,0-16.27,7.7A31.71,31.71,0,0,0,120,448.61a33.71,33.71,0,0,0-3.08,14.17A44.24,44.24,0,0,0,119.08,477a29.34,29.34,0,0,0,9,12.75c4.14,3.55,9.62,6.65,16.75,9.48,2.79,1.12,6,2.21,9.48,3.28H112.78l.15,6.15a39.84,39.84,0,0,0,16.63,32.07,55.37,55.37,0,0,0,18.12,8.54,84.77,84.77,0,0,0,22.73,2.86c17.15,0,30.47-3.66,39.58-10.87,9.54-7.54,14.38-17.23,14.38-28.79,0-7.23-1-13-3.06-17.53A27.66,27.66,0,0,0,210.72,483a63.65,63.65,0,0,0-17.11-7.21l-7-2H221.7l-.42-6.4c-.84-12.73-5.52-22.93-13.91-30.29s-21.09-10.95-38.06-10.95Zm13.13,46.45-12.61-3.55a52.26,52.26,0,0,1-11.68-4.46c-1.54-.9-1.54-1.48-1.54-1.86,0-1.11.21-1.33,1-1.71,1.5-.7,4.6-1.53,10.78-1.53,6,0,8.81,1.19,10.13,2.2,1.69,1.27,2.8,3.62,3.29,7l.59,3.94Zm-12.25,46c-5.18,0-9.33-1.05-12.32-3.12a7.66,7.66,0,0,1-3.46-6.94v-6c5,1.5,10.6,3,16.9,4.36s9.68,2.9,11.25,3.87c.53.33,1.43.88,1.43,3.47,0,.57,0,1.34-2.22,2.3a29.21,29.21,0,0,1-11.58,2Z" transform="translate(-112.78 -391.22)"/><path class="cls-1" d="M253.57,405.8v29.26h59.84V455.3H253.57v44.44q0,10.33,3.85,16t12.65,5.61q8.58,0,12.65-5.5t4.07-15.62V472h26.62v30.8a53.06,53.06,0,0,1-2.53,16.39A38.42,38.42,0,0,1,303,533.07a38,38,0,0,1-13.64,9.57q-8.25,3.51-19.69,3.52-11.88,0-20.24-3.52a38.25,38.25,0,0,1-13.75-9.46,35.87,35.87,0,0,1-7.81-13.86,56.67,56.67,0,0,1-2.42-16.72V405.8h28.16m6-6H219.41V502.6a63,63,0,0,0,2.68,18.47,42.09,42.09,0,0,0,9.11,16.14,44.32,44.32,0,0,0,15.86,11c6.29,2.65,13.89,4,22.57,4a56.24,56.24,0,0,0,22-4,43.92,43.92,0,0,0,15.77-11.1,44.61,44.61,0,0,0,9.15-16,59.22,59.22,0,0,0,2.82-18.24V466H280.79v34.16c0,5.4-1,9.46-2.89,12.05-1,1.32-2.85,3.07-7.83,3.07s-6.82-1.72-7.7-3c-1.86-2.71-2.8-6.93-2.8-12.56V461.3h59.84V429.06H259.57V399.8Z" transform="translate(-112.78 -391.22)"/><path class="cls-1" d="M373.69,432.2q25.08,0,37.95,16.06t12.87,48.4H349.93q.66,12.31,7.15,19.58t17.05,7.26a23.93,23.93,0,0,0,12.43-3.19,14.48,14.48,0,0,0,6.93-8.91H423q-5.07,16.73-17.6,25.74t-29.92,9q-54.12,0-54.12-59a68.6,68.6,0,0,1,3.52-22.66,48.7,48.7,0,0,1,10.23-17.38,44.18,44.18,0,0,1,16.39-11.11,59.71,59.71,0,0,1,22.22-3.85m-22.88,46.42H395a30.32,30.32,0,0,0-2.09-10.45,21.91,21.91,0,0,0-4.95-7.48,19.68,19.68,0,0,0-7-4.4,23.9,23.9,0,0,0-8.14-1.43A20.3,20.3,0,0,0,358,461.13q-6.27,6.27-7.15,17.49m22.88-52.42a66.19,66.19,0,0,0-24.44,4.27,50.32,50.32,0,0,0-18.58,12.62,55,55,0,0,0-11.49,19.48,74.83,74.83,0,0,0-3.85,24.63c0,21.11,5.08,37.35,15.11,48.28s25.3,16.68,45,16.68c12.82,0,24.06-3.42,33.42-10.15s16.09-16.48,19.84-28.87l2.34-7.74H388.89l-1.2,4.44a8.47,8.47,0,0,1-4.19,5.3,17.85,17.85,0,0,1-9.37,2.36c-5.3,0-9.42-1.72-12.58-5.26a21.4,21.4,0,0,1-4.77-9.58h73.73v-6c0-22.86-4.78-40.4-14.19-52.15-9.74-12.15-24.08-18.31-42.63-18.31ZM358,472.62a17.3,17.3,0,0,1,4.24-7.25,14.39,14.39,0,0,1,10.61-4.51,18,18,0,0,1,6.1,1.07,13.63,13.63,0,0,1,4.91,3.08,16,16,0,0,1,3.58,5.46,18.69,18.69,0,0,1,.73,2.15Z" transform="translate(-112.78 -391.22)"/><path class="cls-1" d="M481.48,432.2q12.76,0,21.67,2.86a34.94,34.94,0,0,1,14.3,8.25,31.32,31.32,0,0,1,7.81,13.42,62.6,62.6,0,0,1,2.42,18.15V543.3H501.06a44.31,44.31,0,0,1-1.76-9.68,35.3,35.3,0,0,1-13.42,9.13,51,51,0,0,1-19.36,3.41q-18.69,0-27.39-8.25t-8.69-21.45q0-11.66,3.74-18.59A27.94,27.94,0,0,1,444.52,487a49.94,49.94,0,0,1,15.73-5.83q9.13-1.87,19.91-3.41t14.52-4.07q3.75-2.54,3.74-8.25,0-5.28-4.95-8.25t-13.31-3q-9.9,0-14.19,4.4a20.64,20.64,0,0,0-5.39,11.66H434a49.39,49.39,0,0,1,2.75-15.4,29.54,29.54,0,0,1,8.14-12.1A38.1,38.1,0,0,1,459.48,435q9-2.74,22-2.75m17.6,58.08a15.36,15.36,0,0,1-6.38,3.52,117.52,117.52,0,0,1-12.1,2.86q-12.32,2.41-16.94,6.16T459,513.6q0,12.1,13.86,12.1a27.48,27.48,0,0,0,10.23-1.87,24.94,24.94,0,0,0,13.64-12.54,20.48,20.48,0,0,0,2.09-9.13l.22-11.88m-17.6-64.08c-9.2,0-17.19,1-23.75,3a44.16,44.16,0,0,0-16.89,9.09,35.57,35.57,0,0,0-9.77,14.53A55.15,55.15,0,0,0,428,470.1l-.16,6.16h27.07a53.07,53.07,0,0,0-13.44,5.57A33.93,33.93,0,0,0,428.9,495c-3,5.55-4.46,12.57-4.46,21.44,0,10.47,3.56,19.15,10.56,25.8s17.52,9.9,31.52,9.9a57.35,57.35,0,0,0,21.63-3.85,47.85,47.85,0,0,0,7.08-3.58c0,.13.07.25.11.38l1.33,4.19h37V474.88A69.35,69.35,0,0,0,531,455a37.53,37.53,0,0,0-9.31-15.93A41.05,41.05,0,0,0,505,429.35c-6.52-2.09-14.42-3.15-23.51-3.15ZM466.1,473.92l.42-2.76a14.64,14.64,0,0,1,3.75-8.37c1.65-1.7,5.07-2.59,9.89-2.59,4.45,0,7.89.71,10.23,2.11,1.88,1.13,2,2.12,2,3.11,0,2.53-.8,3.07-1.1,3.28-.61.41-3.28,1.85-12,3.1-4.6.66-9,1.37-13.22,2.12Zm6.8,45.78c-7.28,0-7.86-2.65-7.86-6.1,0-3.74,1.37-5.29,2.4-6.12,1.29-1,4.87-3.08,14.32-4.93,4.61-.9,8.28-1.74,11.14-2.55l0,2.05v.11a14.51,14.51,0,0,1-1.48,6.5,19.56,19.56,0,0,1-4.2,5.73,19.76,19.76,0,0,1-6.25,3.86,21.8,21.8,0,0,1-8,1.45Z" transform="translate(-112.78 -391.22)"/><path class="cls-1" d="M657,432.2A39.71,39.71,0,0,1,672,435a33.66,33.66,0,0,1,11.66,7.7A36.48,36.48,0,0,1,694,468.28v75H666.06V477.74q0-9.9-4.62-16.06a14.63,14.63,0,0,0-12.32-6.16,16,16,0,0,0-13.09,6.6q-5.17,6.6-5.17,16.5V543.3h-28.6V478.18a53.74,53.74,0,0,0-.88-10.78,14.53,14.53,0,0,0-3-6.6,11.25,11.25,0,0,0-5.39-3.41,27.78,27.78,0,0,0-7.92-1q-17.39,0-17.38,21.12V543.3h-28.6V435.06H566V450.9q5.5-10.78,13.2-14.74t18.48-4a48.82,48.82,0,0,1,9.79.88,23.94,23.94,0,0,1,7.7,3,31.44,31.44,0,0,1,6.49,5.39,63,63,0,0,1,6.16,7.92q4.4-9,11.66-13.09T657,432.2m0-6c-7.9,0-14.81,1.63-20.53,4.83a31.87,31.87,0,0,0-9.16,7.81c-.45-.52-.9-1-1.34-1.49a37.29,37.29,0,0,0-7.74-6.41,30,30,0,0,0-9.63-3.74,55.87,55.87,0,0,0-11-1c-8.12,0-15.26,1.55-21.22,4.62a28.78,28.78,0,0,0-4.46,2.86v-4.62H533.12V549.3h40.6V477.52c0-13.29,5.47-15.12,11.38-15.12a22,22,0,0,1,6.2.74,5.16,5.16,0,0,1,2.57,1.59,9,9,0,0,1,1.64,3.91,48.46,48.46,0,0,1,.75,9.54V549.3h40.6V478.62c0-5.27,1.27-9.46,3.89-12.8a10,10,0,0,1,8.37-4.3,8.65,8.65,0,0,1,7.52,3.76c2.27,3,3.42,7.22,3.42,12.46V549.3H700v-81a42.43,42.43,0,0,0-12-29.82,39.81,39.81,0,0,0-13.7-9.07A45.74,45.74,0,0,0,657,426.2Z" transform="translate(-112.78 -391.22)"/><path class="cls-1" d="M735.36,397.22V543.3H704.78V397.22h30.58m6-6H698.78V549.3h42.58V391.22Z" transform="translate(-112.78 -391.22)"/><path class="cls-1" d="M801.8,397.22a73.67,73.67,0,0,1,27.28,4.95,60,60,0,0,1,21.45,14.19,65.9,65.9,0,0,1,14,22.44,83.17,83.17,0,0,1,5.06,29.92,97.56,97.56,0,0,1-4.51,30.47,68.9,68.9,0,0,1-12.87,23.54,58.08,58.08,0,0,1-20,15.18,60.7,60.7,0,0,1-25.74,5.39H745.26V397.22H801.8M775,518.44h25.3q20,0,29-12.43t9-37.29a88.49,88.49,0,0,0-2.2-21.12A33.76,33.76,0,0,0,829,433.19a28.29,28.29,0,0,0-12.65-8.14,60.32,60.32,0,0,0-18.7-2.53H775v95.92M801.8,391.22H739.26V549.3h67.16a66.74,66.74,0,0,0,28.26-5.95,64.35,64.35,0,0,0,22.06-16.72,75.15,75.15,0,0,0,14-25.57,103.87,103.87,0,0,0,4.81-32.34,89.5,89.5,0,0,0-5.46-32.07,72.17,72.17,0,0,0-15.25-24.46,66.32,66.32,0,0,0-23.57-15.6,80,80,0,0,0-29.48-5.37ZM781,428.52h16.66a54.93,54.93,0,0,1,16.83,2.23,22.19,22.19,0,0,1,10,6.41,28,28,0,0,1,5.83,11.9,82.72,82.72,0,0,1,2,19.66c0,15.2-2.65,26.56-7.88,33.76-4.86,6.7-12.77,10-24.18,10H781V428.52Z" transform="translate(-112.78 -391.22)"/></g></g><g id="colored_font" data-name="colored font"><path class="cls-2" d="M480.16,477.72q10.79-1.55,14.52-4.07t3.74-8.25q0-5.28-4.95-8.25t-13.31-3q-9.9,0-14.19,4.4a20.64,20.64,0,0,0-5.39,11.66H434c16.77,2.51,31.72,5.07,45.29,7.61Z" transform="translate(-112.78 -391.22)"/><path class="cls-2" d="M381,456.27a23.66,23.66,0,0,0-8.14-1.43,21.1,21.1,0,0,0-16.63,8.32c10.79.2,22.46.81,35.22,1.94a20.52,20.52,0,0,0-3.41-4.43A19.68,19.68,0,0,0,381,456.27Z" transform="translate(-112.78 -391.22)"/><path class="cls-2" d="M661.44,461.66a14.63,14.63,0,0,0-12.32-6.16A16,16,0,0,0,636,462.1q-5.17,6.6-5.17,16.5v26.57c10.78.57,22.35.72,35.2.38V477.72Q666.06,467.82,661.44,461.66Z" transform="translate(-112.78 -391.22)"/><path class="cls-2" d="M601.38,467.38a14.53,14.53,0,0,0-3-6.6,11.17,11.17,0,0,0-5.39-3.41,27.78,27.78,0,0,0-7.92-1q-17.39,0-17.38,21.12v19.13c11.57,2.37,22.8,4.39,34.54,5.92V478.16A53.67,53.67,0,0,0,601.38,467.38Z" transform="translate(-112.78 -391.22)"/><path class="cls-2" d="M836.12,447.58A33.76,33.76,0,0,0,829,433.17,28.2,28.2,0,0,0,816.32,425a60.32,60.32,0,0,0-18.7-2.53H775v72.72c18.69-2.62,39.27-5.78,62.07-9.54a102.1,102.1,0,0,0,1.29-17A88.37,88.37,0,0,0,836.12,447.58Z" transform="translate(-112.78 -391.22)"/><path class="cls-3" d="M204.27,486.22a68.54,68.54,0,0,0-12.3-4.65q-9.69-2.76-23.76-6.71a58.25,58.25,0,0,1-13.09-5.06q-4.51-2.64-4.51-7a7.28,7.28,0,0,1,4.51-7.15q4.5-2.1,13.31-2.09,9.24,0,13.75,3.41t5.61,10.89h27.5q-1.11-16.72-11.88-26.18t-34.1-9.46q-12.76,0-21.56,2.53a42.93,42.93,0,0,0-14.3,6.71,25.47,25.47,0,0,0-8,9.68,27.49,27.49,0,0,0-2.53,11.66,38.08,38.08,0,0,0,1.87,12.32A23.28,23.28,0,0,0,132,485.2a42.23,42.23,0,0,0,7.58,5A328.87,328.87,0,0,0,204.27,486.22Z" transform="translate(-112.78 -391.22)"/><path class="cls-3" d="M253.57,455.28h59.84V435H253.57V405.78H225.41v76.36c9.57-2.1,18.79-4.4,28.16-6.65Z" transform="translate(-112.78 -391.22)"/><path class="cls-3" d="M356.18,463.16a21.1,21.1,0,0,1,16.63-8.32,23.66,23.66,0,0,1,8.14,1.43,19.68,19.68,0,0,1,7,4.4,20.52,20.52,0,0,1,3.41,4.43c9.36.82,19.31,1.92,29.91,3.34a54.06,54.06,0,0,0-9.67-20.2q-12.87-16.07-37.95-16.06A59.71,59.71,0,0,0,351.47,436a44.06,44.06,0,0,0-16.39,11.11,48.43,48.43,0,0,0-10,16.65C334.66,463.2,344.94,463,356.18,463.16Z" transform="translate(-112.78 -391.22)"/><path class="cls-3" d="M466,458.58q4.29-4.41,14.19-4.4,8.37,0,13.31,3t4.95,8.25q0,5.72-3.74,8.25t-14.52,4.07l-.91.13c18.31,3.44,34.1,6.83,48.43,10v-13a62.6,62.6,0,0,0-2.42-18.15,31.26,31.26,0,0,0-7.81-13.42,34.72,34.72,0,0,0-14.3-8.25q-8.91-2.87-21.67-2.86-13,0-22,2.75a38,38,0,0,0-14.63,7.81,29.47,29.47,0,0,0-8.14,12.1,49.33,49.33,0,0,0-2.75,15.4h26.62A20.64,20.64,0,0,1,466,458.58Z" transform="translate(-112.78 -391.22)"/><path class="cls-3" d="M567.72,477.5q0-21.12,17.38-21.12a27.78,27.78,0,0,1,7.92,1,11.17,11.17,0,0,1,5.39,3.41,14.53,14.53,0,0,1,3,6.6,53.67,53.67,0,0,1,.88,10.78v24.39c9.1,1.19,18.5,2.09,28.6,2.62V478.6q0-9.9,5.17-16.5a16,16,0,0,1,13.09-6.6,14.63,14.63,0,0,1,12.32,6.16q4.62,6.15,4.62,16.06v27.83c8.68-.23,18-.68,27.94-1.39v-35.9a36.48,36.48,0,0,0-10.34-25.63,33.66,33.66,0,0,0-11.66-7.7,39.51,39.51,0,0,0-15-2.75q-10.35,0-17.6,4.07t-11.66,13.09a63,63,0,0,0-6.16-7.92,31.44,31.44,0,0,0-6.49-5.39,23.49,23.49,0,0,0-7.7-3,48.82,48.82,0,0,0-9.79-.88q-10.78,0-18.48,4T566,450.88V435H539.12v55.37c10,2.24,19.42,4.34,28.6,6.22Z" transform="translate(-112.78 -391.22)"/><path class="cls-4" d="M735.36,397.2H704.78V503.33c9.52-.8,19.67-1.81,30.58-3.05Z" transform="translate(-112.78 -391.22)"/><path class="cls-4" d="M775,422.5h22.66a60.32,60.32,0,0,1,18.7,2.53A28.2,28.2,0,0,1,829,433.17a33.76,33.76,0,0,1,7.15,14.41,88.37,88.37,0,0,1,2.2,21.12,102.1,102.1,0,0,1-1.29,17q15.3-2.54,31.94-5.41a111.42,111.42,0,0,0,.59-11.57,83.17,83.17,0,0,0-5.06-29.92,65.9,65.9,0,0,0-14-22.44,60,60,0,0,0-21.45-14.19,73.67,73.67,0,0,0-27.28-4.95H745.26V499.11c9.35-1.13,19.23-2.43,29.7-3.89Z" transform="translate(-112.78 -391.22)"/><path class="cls-5" d="M172.61,501q8.79,2,13.09,4.62t4.29,8.58q0,5.28-5.83,7.81a35.11,35.11,0,0,1-14,2.53q-9.69,0-15.73-4.18a13.58,13.58,0,0,1-6.05-11.88H118.93a33.86,33.86,0,0,0,14.19,27.39,49.2,49.2,0,0,0,16.17,7.59,78.45,78.45,0,0,0,21.12,2.64q23.76,0,35.86-9.57t12.1-24.09q0-9.47-2.53-15.07a21.71,21.71,0,0,0-8.36-9.35c-1-.64-2.06-1.25-3.21-1.84a328.87,328.87,0,0,1-64.67,4,75.72,75.72,0,0,0,7.49,3.44A173.39,173.39,0,0,0,172.61,501Z" transform="translate(-112.78 -391.22)"/><path class="cls-5" d="M227.83,519.3a35.87,35.87,0,0,0,7.81,13.86,38.25,38.25,0,0,0,13.75,9.46q8.36,3.51,20.24,3.52,11.43,0,19.69-3.52A38,38,0,0,0,303,533.05a38.59,38.59,0,0,0,7.92-13.86,53.06,53.06,0,0,0,2.53-16.39V472H286.79v28.16q0,10.11-4.07,15.62t-12.65,5.5q-8.81,0-12.65-5.61t-3.85-15.95V475.49c-9.37,2.25-18.59,4.55-28.16,6.65v20.44A56.72,56.72,0,0,0,227.83,519.3Z" transform="translate(-112.78 -391.22)"/><path class="cls-5" d="M321.33,487.18q0,58.95,54.12,59,17.37,0,29.92-9T423,511.38H393.49a14.48,14.48,0,0,1-6.93,8.91,24,24,0,0,1-12.43,3.19q-10.56,0-17.05-7.26t-7.15-19.58h74.58a110.9,110.9,0,0,0-3.2-28.2c-10.6-1.42-20.55-2.52-29.91-3.34a24.83,24.83,0,0,1,1.54,3A30.27,30.27,0,0,1,395,478.6H350.81c.49-6.34,2.29-11.47,5.37-15.44-11.24-.21-21.52,0-31.06.63-.09.24-.19.48-.27.73A68.56,68.56,0,0,0,321.33,487.18Z" transform="translate(-112.78 -391.22)"/><path class="cls-5" d="M460.25,481.13A49.7,49.7,0,0,0,444.52,487a27.94,27.94,0,0,0-10.34,10.89q-3.74,6.93-3.74,18.59,0,13.2,8.69,21.45t27.39,8.25a51,51,0,0,0,19.36-3.41,35.42,35.42,0,0,0,13.42-9.13,44.42,44.42,0,0,0,1.76,9.68h26.62V487.86c-14.33-3.18-30.12-6.57-48.43-10Q469,479.35,460.25,481.13Zm38.83,9.13-.22,11.88a20.51,20.51,0,0,1-2.09,9.13,25.21,25.21,0,0,1-5.5,7.48,25.55,25.55,0,0,1-8.14,5.06,27.68,27.68,0,0,1-10.23,1.87q-13.86,0-13.86-12.1,0-7.05,4.62-10.78t16.94-6.16a117.52,117.52,0,0,0,12.1-2.86A15.48,15.48,0,0,0,499.08,490.26Z" transform="translate(-112.78 -391.22)"/><path class="cls-5" d="M602.26,543.28h28.6V505.17c-10.1-.53-19.5-1.43-28.6-2.62Z" transform="translate(-112.78 -391.22)"/><path class="cls-5" d="M567.72,543.28V496.63c-9.18-1.88-18.57-4-28.6-6.22v52.87Z" transform="translate(-112.78 -391.22)"/><path class="cls-5" d="M666.06,543.28H694V504.16c-10,.71-19.26,1.16-27.94,1.39Z" transform="translate(-112.78 -391.22)"/><path class="cls-6" d="M735.36,543.28v-43c-10.91,1.24-21.06,2.25-30.58,3.05v39.95Z" transform="translate(-112.78 -391.22)"/><path class="cls-6" d="M806.42,543.28a60.7,60.7,0,0,0,25.74-5.39,58.33,58.33,0,0,0,20-15.18,69,69,0,0,0,12.87-23.54,90.3,90.3,0,0,0,3.92-18.9q-16.66,2.88-31.94,5.41-2.12,12.56-7.73,20.31-9,12.42-29,12.43H775v-23.2c-10.47,1.46-20.35,2.76-29.7,3.89v44.17Z" transform="translate(-112.78 -391.22)"/></g></svg>